<?xml version="1.0" encoding="UTF-8"?>
<svg version="1.1" xmlns="http://www.w3.org/2000/svg" width="50" height="50">
<path d="M0 0 C3.90331678 -0.30614249 6.28286858 -0.42882169 9.69140625 1.609375 C12.64044078 4.66319755 12.65395977 6.3126459 12.75 10.5 C12.75412056 15.85971549 12.75412056 15.85971549 14 21 C14.99 21.33 15.98 21.66 17 22 C16.67 23.65 16.34 25.3 16 27 C15.34 27 14.68 27 14 27 C12.61771837 31.54815247 12.78009073 36.18804419 12.671875 40.90625 C12 44 12 44 9.69140625 46.390625 C6.28286858 48.42882169 3.90331678 48.30614249 0 48 C0.33 46.35 0.66 44.7 1 43 C1.66 43 2.32 43 3 43 C3.04898438 41.89140625 3.09796875 40.7828125 3.1484375 39.640625 C3.22349215 38.17705935 3.29903881 36.71351888 3.375 35.25 C3.4059375 34.52039062 3.436875 33.79078125 3.46875 33.0390625 C3.6748494 29.26057344 3.91512843 26.22053332 6 23 C5.34 22.34 4.68 21.68 4 21 C3.6936141 18.26565038 3.4886664 15.61720179 3.375 12.875 C3.33632813 12.12089844 3.29765625 11.36679688 3.2578125 10.58984375 C3.16348969 8.72696816 3.08065338 6.86351745 3 5 C2.01 4.67 1.02 4.34 0 4 C0 2.68 0 1.36 0 0 Z " fill="#000000" transform="translate(32,1)"/>
<path d="M0 0 C-0.33 1.65 -0.66 3.3 -1 5 C-1.66 5 -2.32 5 -3 5 C-3.04898437 6.10859375 -3.09796875 7.2171875 -3.1484375 8.359375 C-3.22349215 9.82294065 -3.29903881 11.28648112 -3.375 12.75 C-3.42140625 13.84441406 -3.42140625 13.84441406 -3.46875 14.9609375 C-3.6748494 18.73942656 -3.91512843 21.77946668 -6 25 C-5.34 25.66 -4.68 26.32 -4 27 C-3.6936141 29.73434962 -3.4886664 32.38279821 -3.375 35.125 C-3.33632812 35.87910156 -3.29765625 36.63320313 -3.2578125 37.41015625 C-3.16348969 39.27303184 -3.08065338 41.13648255 -3 43 C-2.01 43.33 -1.02 43.66 0 44 C0 45.32 0 46.64 0 48 C-3.90331678 48.30614249 -6.28286858 48.42882169 -9.69140625 46.390625 C-12.64044078 43.33680245 -12.65395977 41.6873541 -12.75 37.5 C-12.75412056 32.14028451 -12.75412056 32.14028451 -14 27 C-14.99 26.67 -15.98 26.34 -17 26 C-16.67 24.35 -16.34 22.7 -16 21 C-15.34 21 -14.68 21 -14 21 C-12.61771837 16.45184753 -12.78009073 11.81195581 -12.671875 7.09375 C-12 4 -12 4 -9.69140625 1.609375 C-6.28286858 -0.42882169 -3.90331678 -0.30614249 0 0 Z " fill="#000000" transform="translate(18,1)"/>
</svg>
